<svg xmlns="http://www.w3.org/2000/svg" viewBox="0 0 100 100" width="100%" height="100%">
  <defs>
    <linearGradient id="bg-arch" x1="0%" y1="0%" x2="100%" y2="100%">
      <stop offset="0%" stop-color="#3A4B61"/>
      <stop offset="100%" stop-color="#1E2734"/>
    </linearGradient>
    <linearGradient id="skin-arch" x1="0%" y1="0%" x2="0%" y2="100%">
      <stop offset="0%" stop-color="#F7D8BF"/>
      <stop offset="100%" stop-color="#E2B89A"/>
    </linearGradient>
  </defs>
  <rect width="100" height="100" rx="50" fill="url(#bg-arch)"/>
  <circle cx="50" cy="50" r="48" fill="none" stroke="#96B9D0" stroke-width="1.5" stroke-opacity="0.3"/>
  <!-- Blueprint grid lines -->
  <line x1="20" y1="25" x2="80" y2="25" stroke="#96B9D0" stroke-width="0.75" stroke-opacity="0.3" stroke-dasharray="3,3"/>
  <line x1="20" y1="45" x2="80" y2="45" stroke="#96B9D0" stroke-width="0.75" stroke-opacity="0.3" stroke-dasharray="3,3"/>
  <!-- Minimalist Turtleneck -->
  <path d="M22 100 C22 75 34 68 50 68 C66 68 78 75 78 100 Z" fill="#11161D"/>
  <rect x="42" y="60" width="16" height="13" rx="4" fill="#1A222D"/>
  <!-- Head -->
  <ellipse cx="50" cy="44" rx="17" ry="20" fill="url(#skin-arch)"/>
  <!-- Geometric Sleek Hair -->
  <path d="M32 40 C32 23 41 18 50 18 C59 18 68 23 68 40 C68 28 58 24 50 24 C40 24 32 30 32 40 Z" fill="#2C2828"/>
  <path d="M32 35 L48 24 L68 35 Z" fill="#3D3838"/>
  <!-- Modern Geometric Square Glasses -->
  <rect x="36" y="39" width="12" height="10" rx="2" fill="none" stroke="#E6D5B8" stroke-width="1.8"/>
  <rect x="52" y="39" width="12" height="10" rx="2" fill="none" stroke="#E6D5B8" stroke-width="1.8"/>
  <line x1="48" y1="44" x2="52" y2="44" stroke="#E6D5B8" stroke-width="1.8"/>
  <!-- Eyes -->
  <circle cx="42" cy="44" r="1.8" fill="#1C1818"/>
  <circle cx="58" cy="44" r="1.8" fill="#1C1818"/>
  <!-- Expression -->
  <line x1="46" y1="56" x2="54" y2="56" stroke="#8A5A44" stroke-width="1.6" stroke-linecap="round"/>
</svg>