<svg xmlns="http://www.w3.org/2000/svg" viewBox="0 0 100 100" width="100%" height="100%">
  <defs>
    <linearGradient id="bg-pioneer" x1="0%" y1="0%" x2="100%" y2="100%">
      <stop offset="0%" stop-color="#B88A28"/>
      <stop offset="100%" stop-color="#6E4E0F"/>
    </linearGradient>
    <linearGradient id="skin-pioneer" x1="0%" y1="0%" x2="0%" y2="100%">
      <stop offset="0%" stop-color="#FCDBC2"/>
      <stop offset="100%" stop-color="#EAB896"/>
    </linearGradient>
  </defs>
  <rect width="100" height="100" rx="50" fill="url(#bg-pioneer)"/>
  <circle cx="50" cy="50" r="48" fill="none" stroke="#FAF6EE" stroke-width="1.5" stroke-opacity="0.3"/>
  <!-- Compass Star background watermark -->
  <path d="M50 8 L53 22 L67 25 L53 28 L50 42 L47 28 L33 25 L47 22 Z" fill="#FAF6EE" opacity="0.25"/>
  <!-- Expedition Jacket & Scarf -->
  <path d="M20 100 C20 74 33 68 50 68 C67 68 80 74 80 100 Z" fill="#2E3A44"/>
  <path d="M36 68 C36 78 44 84 50 84 C56 84 64 78 64 68 Z" fill="#A83232"/>
  <!-- Neck -->
  <rect x="44" y="55" width="12" height="16" rx="3" fill="url(#skin-pioneer)"/>
  <!-- Head -->
  <ellipse cx="50" cy="43" rx="17" ry="20" fill="url(#skin-pioneer)"/>
  <!-- Explorer Fedora / Cap -->
  <path d="M26 35 C32 32 68 32 74 35 C78 37 76 40 70 39 C55 37 45 37 30 39 C24 40 22 37 26 35 Z" fill="#544133"/>
  <path d="M34 35 C34 20 42 16 50 16 C58 16 66 20 66 35 Z" fill="#66503F"/>
  <rect x="34" y="32" width="32" height="4" fill="#A83232"/>
  <!-- Eyes -->
  <circle cx="43" cy="44" r="2" fill="#261A13"/>
  <circle cx="57" cy="44" r="2" fill="#261A13"/>
  <path d="M39 39 C41 38 45 38 47 39" stroke="#261A13" stroke-width="1.6" stroke-linecap="round" fill="none"/>
  <path d="M53 39 C55 38 59 38 61 39" stroke="#261A13" stroke-width="1.6" stroke-linecap="round" fill="none"/>
  <path d="M46 54 C48 56 52 56 54 54" stroke="#8C533E" stroke-width="1.8" stroke-linecap="round" fill="none"/>
</svg>